<?xml version="1.0" encoding="utf-8"?>
<!-- Svg Vector Icons : http://www.onlinewebfonts.com/icon -->
<!DOCTYPE svg PUBLIC "-//W3C//DTD SVG 1.1//EN" "http://www.w3.org/Graphics/SVG/1.1/DTD/svg11.dtd">
<svg version="1.1" xmlns="http://www.w3.org/2000/svg" xmlns:xlink="http://www.w3.org/1999/xlink" x="0px" y="0px" viewBox="0 0 256 256" enable-background="new 0 0 256 256" xml:space="preserve">
<metadata> Svg Vector Icons : http://www.onlinewebfonts.com/icon </metadata>
<g><g><g><path fill="#000000" d="M106.4,19C70.6,22,44.1,28.7,27,38.7c-6.4,3.7-13.4,10.5-15.5,14.7c-2.1,4.4-2,10,0.2,14.6c2.3,4.6,3.3,5.4,4.9,4c1.2-1,3.3,0.7,47.8,38c44.7,37.5,46.5,39.2,46.5,41.3v2.2h17h17l0.2-2.4c0.2-2.2,2.4-4.2,46.7-41.2c43.3-36.2,46.5-38.8,47.6-37.8c1.5,1.4,2.6,0.5,4.8-4.1c2.2-4.6,2.3-10,0.2-14.5c-2-4.4-9-11.1-15.5-14.9c-14.5-8.5-38.6-15.3-66-18.5C154.3,19.2,114.3,18.3,106.4,19z M150.9,44.4c0.2,0.1-1.6,21.9-4.1,48.3c-2.4,26.4-4.4,49-4.5,50.1v2.2H128h-14.4v-2.2c-0.1-1.1-2-23.7-4.5-50.1c-4.4-47.7-4.4-48-3.1-48.3C109.5,43.7,149.7,43.7,150.9,44.4z M103.1,45.5c0,0.4,1.9,21.7,4.3,47.5c2.4,25.7,4.3,46.9,4.1,47c-0.3,0.3-28.7-92.8-28.4-93.1c0.3-0.3,14.3-2,17.3-2.1C101.9,44.8,103.1,45.1,103.1,45.5z M164.3,45.8c4.6,0.5,8.6,1,8.6,1.2c0.1,0.1-6.3,21.2-14.1,46.9c-7.9,25.7-14.3,46.5-14.4,46.1c0-0.4,1.9-21.7,4.3-47.4c2.4-25.7,4.3-46.9,4.3-47.3C152.9,44.6,154.6,44.6,164.3,45.8z M94.5,91.1c7.3,24.1,13.7,45,14.3,46.7c0.5,1.6,0.6,2.6,0.3,2.3c-0.9-1-48-88.8-47.8-89c0.4-0.3,16.6-3.5,18.2-3.5C81.2,47.4,81.4,48.2,94.5,91.1z M185.8,49.1c5,1,8.9,2,8.8,2.3c-0.5,1.3-47.9,89-48.1,88.8c-0.1-0.1,6.2-21,14-46.5C171.2,59,175,47.4,175.8,47.4C176.3,47.4,180.8,48.2,185.8,49.1z M83.8,96.8c13.2,24.4,23.9,44.5,23.9,44.7c0,0.5-68.5-81.8-68.8-82.6c-0.5-1,19.5-7.8,20.5-6.9C59.6,52.2,70.6,72.3,83.8,96.8z M213.3,56.7c2.2,0.8,3.8,1.8,3.7,2.2c-0.2,0.8-68.7,83.2-68.7,82.6c0-0.4,45.9-86,47.5-88.6l0.9-1.4l6.4,1.9C206.6,54.4,211.2,55.9,213.3,56.7z M70.5,99.8c18.5,22.1,34,40.9,34.6,41.6c0.9,1.2,0.9,1.2-0.3,0.2c-22.8-19-85.2-71.6-85.3-72c-0.4-1,15.6-10.7,17-10.3C36.7,59.4,52,77.6,70.5,99.8z M224.4,61.5c5.4,2.8,12.2,7.3,12.2,8.1c0,0.3-18.8,16.3-41.7,35.5c-23,19.1-42.5,35.5-43.3,36.2l-1.6,1.4l1.3-1.7c2-2.6,68-81.8,68.2-81.8C219.6,59.2,221.8,60.2,224.4,61.5z"/><path fill="#000000" d="M112.4,155.8c-1.4,0.9-1.4,1.4-1.4,9.3v8.3l5.2,5.2l5.3,5.2l-0.2,9.8c-0.2,9.5-0.3,10.1-3,18.5c-2.5,7.9-2.8,9.2-2.8,15.6c0,7.9,0.5,9.5,3.1,9.5c3,0,3.4-1,3.4-8.4c0-5.4,0.3-7.9,1.7-12.3c1.6-5.2,1.8-5.5,3.5-5.5c1.5,0,2,0.5,3.5,3.6c1.6,3.2,1.8,4.4,1.8,10c0,7.4,0.9,9.5,3.8,9.2c2.8-0.3,3.5-2.6,3.3-10c-0.2-6-0.4-6.9-2.7-11.6l-2.4-5v-11.7v-11.7l5.2-5.2l5.2-5.2v-8.3c0-8.2,0-8.4-1.6-9.4c-1.5-1-1.8-1-3.3,0c-1.6,1-1.6,1.3-1.6,8.1v7.1l-3.8,3.7c-3.5,3.4-4,3.7-6.7,3.7c-2.7,0-3.2-0.3-6.7-3.7l-3.8-3.7v-6.7c0-5.9-0.2-6.9-1.3-8.1C114.6,154.5,114.3,154.5,112.4,155.8z"/><path fill="#000000" d="M125.6,162.2c-4.5,2-5.6,6.7-2.3,10.3c1.6,1.8,2.4,2.2,4.6,2.2c2.3,0,3.1-0.4,4.6-2.2c3.3-3.7,2.2-8.4-2.4-10.3C127.7,161.2,128.1,161.2,125.6,162.2z"/></g></g></g>
</svg>